<mxfile host="app.diagrams.net" modified="2023-12-14T22:37:22.019Z" agent="Mozilla/5.0 (X11; Linux x86_64; rv:120.0) Gecko/20100101 Firefox/120.0" etag="q_k93_TT2TtnG12lOLxC" version="22.1.9" type="device">
  <diagram name="PÃ¡gina-1" id="r3tNoG_vD98JxmsCDNUD">
    <mxGraphModel dx="1022" dy="513" grid="1" gridSize="10" guides="1" tooltips="1" connect="1" arrows="1" fold="1" page="1" pageScale="1" pageWidth="827" pageHeight="1169" math="0" shadow="0">
      <root>
        <mxCell id="0" />
        <mxCell id="1" parent="0" />
        <mxCell id="PRU5wxTGSgG_8JgcuDoo-1" value="" style="image;points=[];aspect=fixed;html=1;align=center;shadow=0;dashed=0;image=img/lib/allied_telesis/computer_and_terminals/Personal_Computer.svg;" vertex="1" parent="1">
          <mxGeometry x="170" y="160" width="88.54" height="120" as="geometry" />
        </mxCell>
        <mxCell id="PRU5wxTGSgG_8JgcuDoo-3" value="" style="image;points=[];aspect=fixed;html=1;align=center;shadow=0;dashed=0;image=img/lib/allied_telesis/computer_and_terminals/Personal_Computer.svg;" vertex="1" parent="1">
          <mxGeometry x="170" y="310" width="88.54" height="120" as="geometry" />
        </mxCell>
        <mxCell id="PRU5wxTGSgG_8JgcuDoo-4" value="" style="image;aspect=fixed;perimeter=ellipsePerimeter;html=1;align=center;shadow=0;dashed=0;spacingTop=3;image=img/lib/active_directory/firewall.svg;" vertex="1" parent="1">
          <mxGeometry x="377" y="240" width="73.2" height="120" as="geometry" />
        </mxCell>
        <mxCell id="PRU5wxTGSgG_8JgcuDoo-5" value="" style="sketch=0;outlineConnect=0;fontColor=#232F3E;gradientColor=none;fillColor=#7AA116;strokeColor=none;dashed=0;verticalLabelPosition=bottom;verticalAlign=top;align=center;html=1;fontSize=12;fontStyle=0;aspect=fixed;pointerEvents=1;shape=mxgraph.aws4.iot_thing_plc;" vertex="1" parent="1">
          <mxGeometry x="610" y="261" width="78" height="78" as="geometry" />
        </mxCell>
        <mxCell id="PRU5wxTGSgG_8JgcuDoo-10" value="" style="endArrow=none;html=1;rounded=0;edgeStyle=orthogonalEdgeStyle;entryX=0.025;entryY=0.418;entryDx=0;entryDy=0;entryPerimeter=0;" edge="1" parent="1" source="PRU5wxTGSgG_8JgcuDoo-1" target="PRU5wxTGSgG_8JgcuDoo-4">
          <mxGeometry width="50" height="50" relative="1" as="geometry">
            <mxPoint x="280" y="310" as="sourcePoint" />
            <mxPoint x="360" y="290" as="targetPoint" />
            <Array as="points">
              <mxPoint x="320" y="220" />
              <mxPoint x="320" y="290" />
            </Array>
          </mxGeometry>
        </mxCell>
        <mxCell id="PRU5wxTGSgG_8JgcuDoo-15" value="" style="endArrow=none;html=1;rounded=0;edgeStyle=orthogonalEdgeStyle;" edge="1" parent="1" source="PRU5wxTGSgG_8JgcuDoo-3" target="PRU5wxTGSgG_8JgcuDoo-4">
          <mxGeometry width="50" height="50" relative="1" as="geometry">
            <mxPoint x="360" y="340" as="sourcePoint" />
            <mxPoint x="370" y="290" as="targetPoint" />
            <Array as="points">
              <mxPoint x="320" y="370" />
              <mxPoint x="320" y="290" />
            </Array>
          </mxGeometry>
        </mxCell>
        <mxCell id="PRU5wxTGSgG_8JgcuDoo-19" value="" style="endArrow=none;html=1;rounded=0;edgeStyle=orthogonalEdgeStyle;exitX=1;exitY=0.5;exitDx=0;exitDy=0;" edge="1" parent="1">
          <mxGeometry width="50" height="50" relative="1" as="geometry">
            <mxPoint x="450.20000000000005" y="292" as="sourcePoint" />
            <mxPoint x="610" y="292" as="targetPoint" />
            <Array as="points" />
          </mxGeometry>
        </mxCell>
        <mxCell id="PRU5wxTGSgG_8JgcuDoo-20" value="&lt;font style=&quot;font-size: 18px;&quot;&gt;&lt;b&gt;Client1&lt;/b&gt;&lt;/font&gt;" style="text;html=1;align=center;verticalAlign=middle;resizable=0;points=[];autosize=1;strokeColor=none;fillColor=none;" vertex="1" parent="1">
          <mxGeometry x="100" y="170" width="80" height="40" as="geometry" />
        </mxCell>
        <mxCell id="PRU5wxTGSgG_8JgcuDoo-22" value="&lt;font style=&quot;font-size: 18px;&quot;&gt;&lt;b&gt;Client2&lt;/b&gt;&lt;/font&gt;" style="text;html=1;align=center;verticalAlign=middle;resizable=0;points=[];autosize=1;strokeColor=none;fillColor=none;" vertex="1" parent="1">
          <mxGeometry x="100" y="320" width="80" height="40" as="geometry" />
        </mxCell>
        <mxCell id="PRU5wxTGSgG_8JgcuDoo-23" value="&lt;b&gt;&lt;font style=&quot;font-size: 14px;&quot;&gt;Firewall&lt;/font&gt;&lt;/b&gt;" style="text;html=1;align=center;verticalAlign=middle;resizable=0;points=[];autosize=1;strokeColor=none;fillColor=none;" vertex="1" parent="1">
          <mxGeometry x="409" y="231" width="80" height="30" as="geometry" />
        </mxCell>
        <mxCell id="PRU5wxTGSgG_8JgcuDoo-24" value="&lt;b&gt;PLC&lt;/b&gt;" style="text;html=1;align=center;verticalAlign=middle;resizable=0;points=[];autosize=1;strokeColor=none;fillColor=none;" vertex="1" parent="1">
          <mxGeometry x="623" y="231" width="50" height="30" as="geometry" />
        </mxCell>
      </root>
    </mxGraphModel>
  </diagram>
</mxfile>
